<svg xmlns="http://www.w3.org/2000/svg" width="107" height="46" viewBox="0 0 107 46"><title>Group 6</title><path d="M13.832 9.296c-.002.06-.002.119 0 .174v-.174zM17.945 34.105h.319-.32zM37.986 5.195c.013-.008.024-.018.035-.023-.01.005-.022.015-.035.023M13.848 9.684c.002.017.007.031.008.047-.001-.016-.006-.03-.008-.047M13.832 29.65a7.69 7.69 0 0 0 0 .32v-.32zM38.107 34.053a.906.906 0 0 0 .237.049.672.672 0 0 1-.237-.05M42.892 29.604v.391c0-.147.005-.272 0-.391M38.777 34.105h-.363c.111.003.23 0 .363 0" fill="#61bfc3" fill-rule="evenodd"/><g fill="#61bfc3" fill-rule="evenodd"><path d="M28.879 7.853a.73.73 0 0 1-1.032 0l-2.96-2.956a.733.733 0 0 1 0-1.031L27.847.91a.733.733 0 0 1 1.032 0l2.96 2.956a.731.731 0 0 1 0 1.031l-2.96 2.956z"/><path d="M37.645 33.388v-3.81c0-.395.321-.717.718-.717h3.812c.295 0 .55.181.66.438a.747.747 0 0 0-.164-.25l-8.95-8.945a.728.728 0 0 1 0-1.03l8.88-8.876c.022-.024.032-.047.053-.072a.703.703 0 0 1-.48.192h-3.81a.717.717 0 0 1-.72-.715V5.791a.7.7 0 0 1 .199-.488c-.014.012-.028.016-.043.031l-8.923 8.902a.733.733 0 0 1-1.032 0l-8.927-8.895c-.007-.01-.018-.01-.026-.018a.7.7 0 0 1 .187.468l.002 3.812a.718.718 0 0 1-.716.715h-3.816a.716.716 0 0 1-.484-.194c.009.006.011.012.017.02L23 19.073a.728.728 0 0 1 0 1.03l-8.938 8.932a.75.75 0 0 0-.168.253.72.72 0 0 1 .654-.428h3.814c.395 0 .716.322.716.717l.002 3.81c0 .196-.08.376-.211.505.012-.012.027-.014.039-.027l8.936-8.924a.737.737 0 0 1 1.032 0l8.946 8.934a.77.77 0 0 0 .253.17.722.722 0 0 1-.431-.658"/></g><path d="M42.836 29.3a.745.745 0 0 1 .056.27.95.95 0 0 0-.056-.27M13.88 29.342" fill="#61bfc3" fill-rule="evenodd"/><g fill="#566169" fill-rule="evenodd"><path d="M.692 1.294v32.807h4.98V1.294zM55.938 29.403h5.952c2.812 0 4.796-.969 6.087-2.855 1.106-1.66 1.245-2.584 1.245-8.664 0-5.9-.14-7.328-1.476-9.124-1.523-2.077-3.184-2.765-5.856-2.765h-5.952v23.408zm-4.98-28.109H62.44c4.335 0 7.888 1.936 10.01 5.53 1.615 2.765 1.751 4.01 1.751 10.874 0 7.373-.368 8.664-1.844 10.967-1.936 3.041-5.35 5.437-10.24 5.437h-11.16V1.294zM96.55 22.352l-4.748-14.33h-.096l-4.75 14.33h9.594zm1.431 4.424H85.525L82.99 34.1h-5.258L89.679 1.295h4.15L105.776 34.1h-5.257l-2.538-7.325zM18.362 5.075h-3.814a.718.718 0 0 0-.716.716v3.812c0 .394.322.715.716.715h3.817a.718.718 0 0 0 .716-.715l-.002-3.812a.718.718 0 0 0-.717-.716M42.175 5.075h-3.814a.718.718 0 0 0-.716.716v3.812c0 .394.321.715.716.715h3.815a.715.715 0 0 0 .715-.715V5.79a.72.72 0 0 0-.716-.716M18.362 28.86h-3.814a.718.718 0 0 0-.716.718v3.81c0 .394.322.717.716.717h3.817a.72.72 0 0 0 .716-.718l-.002-3.809a.718.718 0 0 0-.717-.717M42.175 28.86h-3.814a.718.718 0 0 0-.716.718v3.81c0 .394.321.717.716.717h3.815a.717.717 0 0 0 .715-.718v-3.809a.72.72 0 0 0-.716-.717M2.124 46h.756l2.115-6.408H3.969L2.511 44.47h-.018l-1.458-4.878H.009L2.124 46zm8.055 0h.972v-6.408h-.972V46zm6.822 0h.972v-4.554h.018L20.889 46h.918v-6.408h-.972v4.554h-.018l-2.898-4.554h-.918V46zm1.341-6.813c0-.297.243-.387.378-.387.36 0 .837.333 1.296.333.603 0 .891-.504.99-1.044h-.54c-.063.333-.252.396-.423.396-.369 0-.774-.342-1.224-.342-.54 0-.936.423-1.017 1.044h.54zm10.449 4.518l.927-2.799h.018l.927 2.799h-1.872zM31.437 46h1.026l-2.331-6.408h-.81L26.991 46h1.026l.495-1.431h2.43L31.437 46zm12.87 0h2.178c.954 0 1.62-.468 1.998-1.062.288-.45.36-.702.36-2.142 0-1.341-.027-1.584-.342-2.124-.414-.702-1.107-1.08-1.953-1.08h-2.241V46zm.972-5.49h1.161c.522 0 .846.135 1.143.54.261.351.288.63.288 1.782 0 1.188-.027 1.368-.243 1.692-.252.369-.639.558-1.188.558h-1.161V40.51zM54.477 46h4.095v-.918h-3.123v-1.881h2.664v-.864h-2.664V40.51h3.123v-.918h-4.095V46zm9.504 0h4.095v-.918h-3.123v-5.49h-.972V46zm16.164 0h.972v-3.996h.018l1.341 3.078h.81l1.341-3.078h.018V46h.972v-6.408h-.918l-1.8 4.176-1.836-4.176h-.918V46zm12.456-2.295l.927-2.799h.018l.927 2.799h-1.872zM95.247 46h1.026l-2.331-6.408h-.81L90.801 46h1.026l.495-1.431h2.43L95.247 46zm7.182-5.544h1.521c.333 0 .531.063.711.198.198.144.324.396.324.729 0 .54-.36 1.017-1.089 1.017h-1.467v-1.944zM101.457 46h.972v-2.736h1.242L104.994 46h1.152l-1.485-2.844c.774-.27 1.242-.945 1.242-1.773 0-.576-.279-1.062-.639-1.368-.342-.297-.765-.423-1.305-.423h-2.502V46z"/></g></svg>