<svg width="1224" height="976" viewBox="0 0 1224 976" xmlns="http://www.w3.org/2000/svg" xmlns:xlink="http://www.w3.org/1999/xlink"><title>Group 8</title><defs><path id="a" d="M269.245 896.209H0V0h538.49v896.209H269.245z"/><path id="c" d="M269.245 896.209H0V0h538.49v896.209H269.245z"/><path id="e" d="M675.04 0H0v429.281h675.04V0z"/></defs><g fill="none" fill-rule="evenodd"><g opacity=".195" transform="rotate(35 659.497 1721.182)"><mask id="b" fill="#fff"><use xlink:href="#a"/></mask><path fill="#FEFEFE" mask="url(#b)" d="M99.674 265.96l146.62-114.87 8.022-68.495 56.17 1.457 39.757 32.259L455.42 0h80.551l2.518 896.209L0 738.056z"/></g><g opacity=".195" transform="rotate(100 523.962 549.368)"><mask id="d" fill="#fff"><use xlink:href="#c"/></mask><path fill="#FEFEFE" mask="url(#d)" d="M99.674 265.96l146.62-114.87 8.022-68.495 56.17 1.457 39.757 32.259L455.42 0h80.551l2.518 896.209L0 738.056z"/></g><g opacity=".253" transform="rotate(-30 1090.312 -1105.852)"><mask id="f" fill="#fff"><use xlink:href="#e"/></mask><path fill="#FEFEFE" mask="url(#f)" d="M117.43 109.696L0 427.864l675.04 1.417L673.62 0 226.247 119.544z"/></g><path fill="#FEFEFE" opacity=".187" d="M725.988 615.532L520.863 504.194l-8.719-43.221L-224 367.298 381.003 18"/></g></svg>