<?xml version="1.0" encoding="UTF-8" standalone="no"?>
<svg
   xmlns:dc="http://purl.org/dc/elements/1.1/"
   xmlns:cc="http://creativecommons.org/ns#"
   xmlns:rdf="http://www.w3.org/1999/02/22-rdf-syntax-ns#"
   xmlns:svg="http://www.w3.org/2000/svg"
   xmlns="http://www.w3.org/2000/svg"
   xmlns:sodipodi="http://sodipodi.sourceforge.net/DTD/sodipodi-0.dtd"
   xmlns:inkscape="http://www.inkscape.org/namespaces/inkscape"
   width="107px"
   height="46px"
   viewBox="0 0 107 46"
   version="1.1"
   id="svg2"
   inkscape:version="0.91 r13725"
   sodipodi:docname="logo-ixda.svg">
  <metadata
     id="metadata38">
    <rdf:RDF>
      <cc:Work
         rdf:about="">
        <dc:format>image/svg+xml</dc:format>
        <dc:type
           rdf:resource="http://purl.org/dc/dcmitype/StillImage" />
        <dc:title>Group 6</dc:title>
      </cc:Work>
    </rdf:RDF>
  </metadata>
  <sodipodi:namedview
     pagecolor="#ffffff"
     bordercolor="#666666"
     borderopacity="1"
     objecttolerance="10"
     gridtolerance="10"
     guidetolerance="10"
     inkscape:pageopacity="0"
     inkscape:pageshadow="2"
     inkscape:window-width="1920"
     inkscape:window-height="1022"
     id="namedview36"
     showgrid="false"
     inkscape:zoom="4.0934579"
     inkscape:cx="54.232877"
     inkscape:cy="23"
     inkscape:window-x="0"
     inkscape:window-y="27"
     inkscape:window-maximized="1"
     inkscape:current-layer="svg2" />
  <!-- Generator: Sketch 41.2 (35397) - http://www.bohemiancoding.com/sketch -->
  <title
     id="title4">Group 6</title>
  <desc
     id="desc6">Created with Sketch.</desc>
  <defs
     id="defs8" />
  <path
     d="m 13.831878,9.295778 c -0.0022,0.06 -0.0022,0.1188889 0,0.1744444 l 0,-0.1744444 z"
     id="Fill-8"
     inkscape:connector-curvature="0"
     style="fill:#61bfc3;fill-rule:evenodd;stroke:none;stroke-width:1" />
  <path
     d="m 17.944737,34.104778 c 0.116786,0 0.219112,0.0011 0.319214,0 l -0.319214,0 z"
     id="Fill-10"
     inkscape:connector-curvature="0"
     style="fill:#61bfc3;fill-rule:evenodd;stroke:none;stroke-width:1" />
  <path
     d="m 37.986278,5.1952224 c 0.01224,-0.00778 0.02336,-0.017778 0.03448,-0.023333 -0.01001,0.00556 -0.02224,0.015556 -0.03448,0.023333"
     id="Fill-12"
     inkscape:connector-curvature="0"
     style="fill:#61bfc3;fill-rule:evenodd;stroke:none;stroke-width:1" />
  <path
     d="m 18.550799,34.065667 c -0.0456,0.01333 -0.09232,0.02556 -0.141255,0.03 0.04671,-0.0056 0.09565,-0.01667 0.141255,-0.03"
     id="Fill-14"
     inkscape:connector-curvature="0"
     style="fill:#61bfc3;fill-rule:evenodd;stroke:none;stroke-width:1" />
  <path
     d="m 13.848228,9.6842224 c 0.0022,0.016667 0.0067,0.031111 0.0078,0.046667 -0.0011,-0.015555 -0.0056,-0.03 -0.0078,-0.046667"
     id="Fill-16"
     inkscape:connector-curvature="0"
     style="fill:#61bfc3;fill-rule:evenodd;stroke:none;stroke-width:1" />
  <path
     d="m 13.831878,29.650556 c -0.0022,0.09778 -0.0022,0.202222 0,0.318889 l 0,-0.318889 z"
     id="Fill-18"
     inkscape:connector-curvature="0"
     style="fill:#61bfc3;fill-rule:evenodd;stroke:none;stroke-width:1" />
  <path
     d="m 38.107401,34.052667 c 0.07341,0.02556 0.15349,0.04333 0.236908,0.04889 -0.08342,-0.0022 -0.1635,-0.01889 -0.236908,-0.04889"
     id="Fill-20"
     inkscape:connector-curvature="0"
     style="fill:#61bfc3;fill-rule:evenodd;stroke:none;stroke-width:1" />
  <path
     d="m 18.864119,33.897556 c -0.05561,0.05555 -0.124572,0.09889 -0.196868,0.133333 0.06562,-0.03 0.131245,-0.07556 0.196868,-0.133333"
     id="Fill-22"
     inkscape:connector-curvature="0"
     style="fill:#61bfc3;fill-rule:evenodd;stroke:none;stroke-width:1" />
  <path
     d="m 42.8915,29.603889 0,0.391111 c 0,-0.146666 0.0056,-0.272222 0,-0.391111"
     id="Fill-24"
     inkscape:connector-curvature="0"
     style="fill:#61bfc3;fill-rule:evenodd;stroke:none;stroke-width:1" />
  <path
     d="m 38.776528,34.104778 -0.362592,0 c 0.111224,0.0033 0.229122,0 0.362592,0"
     id="Fill-26"
     inkscape:connector-curvature="0"
     style="fill:#61bfc3;fill-rule:evenodd;stroke:none;stroke-width:1" />
  <g
     id="logo-ixda__green-x">
    <path
       style="fill:#61bfc3;fill-rule:evenodd;stroke:none;stroke-width:1"
       inkscape:connector-curvature="0"
       id="Fill-6"
       d="m 28.878772,7.8525558 c -0.282511,0.2844444 -0.749653,0.2844444 -1.032164,0 L 24.886925,4.8970002 c -0.28251,-0.2833333 -0.28251,-0.7477778 0,-1.0311111 l 2.959683,-2.95555554 c 0.282511,-0.28333334 0.749653,-0.28333334 1.032164,0 l 2.960796,2.95555554 c 0.283622,0.2833333 0.283622,0.7477778 0,1.0311111 l -2.960796,2.9555556 z" />
    <path
       style="fill:#61bfc3;fill-rule:evenodd;stroke:none;stroke-width:1"
       inkscape:connector-curvature="0"
       id="Fill-28"
       d="m 37.644707,33.387556 0,-3.81 c 0,-0.394445 0.321439,-0.716667 0.718511,-0.716667 l 3.811663,0 c 0.294745,0 0.550561,0.181111 0.660673,0.437778 -0.03448,-0.08445 -0.08342,-0.167778 -0.164612,-0.25 l -8.950235,-8.944445 c -0.284734,-0.283333 -0.284734,-0.747777 0,-1.03 l 8.880164,-8.876666 c 0.02224,-0.02333 0.03226,-0.04667 0.05339,-0.07111 -0.12902,0.117777 -0.29252,0.191111 -0.479377,0.191111 l -3.811663,0 c -0.397072,0 -0.718511,-0.3211113 -0.718511,-0.7144447 l 0,-3.8122222 c 0,-0.19 0.07563,-0.36 0.19798,-0.4877778 -0.01335,0.012222 -0.02781,0.015556 -0.04227,0.031111 l -8.923541,8.9022227 c -0.28251,0.283333 -0.747429,0.283333 -1.032163,0 L 18.91784,5.3408891 c -0.0067,-0.01 -0.0178,-0.01 -0.02558,-0.017778 0.113449,0.1266669 0.186857,0.287778 0.186857,0.467778 l 0.0022,3.8122222 c 0,0.3933334 -0.323664,0.7144447 -0.716286,0.7144447 l -3.816112,0 c -0.186858,0 -0.354807,-0.07556 -0.483827,-0.193334 0.0089,0.0056 0.01112,0.01222 0.01668,0.01889 l 8.919091,8.931111 c 0.284735,0.282223 0.284735,0.746667 0,1.03 l -8.937995,8.932222 c -0.08342,0.08333 -0.132357,0.166666 -0.167949,0.252222 0.113449,-0.251111 0.362592,-0.427778 0.654,-0.427778 l 3.813888,0 c 0.394847,0 0.716285,0.322222 0.716285,0.716667 l 0.0022,3.81 c 0,0.196666 -0.08008,0.376666 -0.211327,0.505555 0.01224,-0.01222 0.02669,-0.01444 0.03893,-0.02667 l 8.935776,-8.924445 c 0.284734,-0.281111 0.749653,-0.281111 1.032163,0 l 8.945786,8.934445 c 0.08564,0.08555 0.170173,0.133333 0.253591,0.168889 C 37.82262,33.931996 37.64466,33.680885 37.64466,33.387552" />
  </g>
  <path
     d="m 42.83611,29.300111 c 0.03448,0.08222 0.05339,0.174445 0.05561,0.27 -0.0067,-0.09444 -0.02336,-0.184444 -0.05561,-0.27"
     id="Fill-30"
     inkscape:connector-curvature="0"
     style="fill:#61bfc3;fill-rule:evenodd;stroke:none;stroke-width:1" />
  <path
     d="m 13.879148,29.342445 c -0.02336,0.06667 -0.0367,0.135555 -0.04115,0.207777 0,-0.07222 0.01668,-0.142222 0.04115,-0.207777"
     id="Fill-32"
     inkscape:connector-curvature="0"
     style="fill:#61bfc3;fill-rule:evenodd;stroke:none;stroke-width:1" />
  <g
     id="logo-ixda__grey-text">
    <polygon
       id="Fill-1"
       points="0.69181633,1.2942222 0.69181633,34.100889 5.672449,34.100889 5.672449,1.2942222 "
       style="fill:#566169;fill-rule:evenodd;stroke:none;stroke-width:1" />
    <path
       style="fill:#566169;fill-rule:evenodd;stroke:none;stroke-width:1"
       inkscape:connector-curvature="0"
       id="Fill-2"
       d="m 55.938133,29.403111 5.951622,0 c 2.811755,0 4.796,-0.968889 6.087317,-2.855555 1.105571,-1.658889 1.244602,-2.583334 1.244602,-8.663334 0,-5.9 -0.139031,-7.327777 -1.475949,-9.124444 C 66.223061,6.6831113 64.56248,5.9953336 61.889755,5.9953336 l -5.951622,0 0,23.4077774 z M 50.9575,1.2942224 l 11.483929,0 c 4.334418,0 7.888041,1.9355556 10.009092,5.5288889 1.614979,2.7655556 1.751785,4.0099997 1.751785,10.8744447 0,7.373333 -0.368153,8.664444 -1.844102,10.967778 C 70.421786,31.706445 67.007194,34.102 62.118878,34.102 l -11.161378,0 0,-32.8077776 z" />
    <path
       style="fill:#566169;fill-rule:evenodd;stroke:none;stroke-width:1"
       inkscape:connector-curvature="0"
       id="Fill-4"
       d="M 96.549753,22.352334 91.80158,8.0212224 l -0.09565,0 -4.749286,14.3311116 9.593112,0 z m 1.43146,4.423333 -12.456031,0 -2.535919,7.325555 -5.258693,0 11.948847,-32.8066662 4.149785,0 11.946628,32.8066662 -5.25647,0 -2.538147,-7.325555 z" />
    <path
       style="fill:#566169;fill-rule:evenodd;stroke:none;stroke-width:1"
       inkscape:connector-curvature="0"
       id="Fill-34"
       d="m 18.362385,5.074778 -3.813888,0 c -0.394847,0 -0.716286,0.3222222 -0.716286,0.7166667 l 0,3.8111111 c 0,0.3944444 0.321439,0.7155552 0.716286,0.7155552 l 3.816112,0 c 0.392623,0 0.716286,-0.3211108 0.716286,-0.7155552 l -0.0022,-3.8111111 c 0,-0.3944445 -0.321439,-0.7166667 -0.716286,-0.7166667" />
    <path
       style="fill:#566169;fill-rule:evenodd;stroke:none;stroke-width:1"
       inkscape:connector-curvature="0"
       id="Fill-36"
       d="m 42.175103,5.074778 -3.813888,0 c -0.394846,0 -0.716285,0.3222222 -0.716285,0.7166667 l 0,3.8111111 c 0,0.3944444 0.321439,0.7155552 0.716285,0.7155552 l 3.815,0 c 0.39596,0 0.715174,-0.3211108 0.715174,-0.7155552 l 0,-3.8111111 c 0,-0.3944445 -0.323663,-0.7166667 -0.716286,-0.7166667" />
    <path
       style="fill:#566169;fill-rule:evenodd;stroke:none;stroke-width:1"
       inkscape:connector-curvature="0"
       id="Fill-38"
       d="m 18.362385,28.860667 -3.813888,0 c -0.394847,0 -0.716286,0.322222 -0.716286,0.717778 l 0,3.808889 c 0,0.394444 0.321439,0.717777 0.716286,0.717777 l 3.816112,0 c 0.392623,0 0.716286,-0.323333 0.716286,-0.717777 l -0.0022,-3.808889 c 0,-0.395556 -0.321439,-0.717778 -0.716286,-0.717778" />
    <path
       style="fill:#566169;fill-rule:evenodd;stroke:none;stroke-width:1"
       inkscape:connector-curvature="0"
       id="Fill-40"
       d="m 42.175103,28.860667 -3.813888,0 c -0.394846,0 -0.716285,0.322222 -0.716285,0.717778 l 0,3.808889 c 0,0.394444 0.321439,0.717777 0.716285,0.717777 l 3.815,0 c 0.39596,0 0.715174,-0.323333 0.715174,-0.717777 l 0,-3.808889 c 0,-0.395556 -0.323663,-0.717778 -0.716286,-0.717778" />
    <path
       d="m 2.124,46 0.756,0 2.115,-6.408 -1.026,0 -1.458,4.878 -0.018,0 -1.458,-4.878 -1.026,0 L 2.124,46 Z m 8.055,0 0.972,0 0,-6.408 -0.972,0 0,6.408 z m 6.822,0 0.972,0 0,-4.554 0.018,0 2.898,4.554 0.918,0 0,-6.408 -0.972,0 0,4.554 -0.018,0 -2.898,-4.554 -0.918,0 0,6.408 z m 1.341,-6.813 c 0,-0.297 0.243,-0.387 0.378,-0.387 0.36,0 0.837,0.333 1.296,0.333 0.603,0 0.891,-0.504 0.99,-1.044 l -0.54,0 c -0.063,0.333 -0.252,0.396 -0.423,0.396 -0.369,0 -0.774,-0.342 -1.224,-0.342 -0.54,0 -0.936,0.423 -1.017,1.044 l 0.54,0 z m 10.449,4.518 0.927,-2.799 0.018,0 0.927,2.799 -1.872,0 z m 2.646,2.295 1.026,0 -2.331,-6.408 -0.81,0 -2.331,6.408 1.026,0 0.495,-1.431 2.43,0 0.495,1.431 z m 12.87,0 2.178,0 c 0.954,0 1.62,-0.468 1.998,-1.062 0.288,-0.45 0.36,-0.702 0.36,-2.142 0,-1.341 -0.027,-1.584 -0.342,-2.124 -0.414,-0.702 -1.107,-1.08 -1.953,-1.08 l -2.241,0 0,6.408 z m 0.972,-5.49 1.161,0 c 0.522,0 0.846,0.135 1.143,0.54 0.261,0.351 0.288,0.63 0.288,1.782 0,1.188 -0.027,1.368 -0.243,1.692 -0.252,0.369 -0.639,0.558 -1.188,0.558 l -1.161,0 0,-4.572 z m 9.198,5.49 4.095,0 0,-0.918 -3.123,0 0,-1.881 2.664,0 0,-0.864 -2.664,0 0,-1.827 3.123,0 0,-0.918 -4.095,0 0,6.408 z m 9.504,0 4.095,0 0,-0.918 -3.123,0 0,-5.49 -0.972,0 0,6.408 z m 16.164,0 0.972,0 0,-3.996 0.018,0 1.341,3.078 0.81,0 1.341,-3.078 0.018,0 0,3.996 0.972,0 0,-6.408 -0.918,0 -1.8,4.176 -1.836,-4.176 -0.918,0 0,6.408 z m 12.456,-2.295 0.927,-2.799 0.018,0 0.927,2.799 -1.872,0 z m 2.646,2.295 1.026,0 -2.331,-6.408 -0.81,0 -2.331,6.408 1.026,0 0.495,-1.431 2.43,0 0.495,1.431 z m 7.182,-5.544 1.521,0 c 0.333,0 0.531,0.063 0.711,0.198 0.198,0.144 0.324,0.396 0.324,0.729 0,0.54 -0.36,1.017 -1.089,1.017 l -1.467,0 0,-1.944 z m -0.972,5.544 0.972,0 0,-2.736 1.242,0 1.323,2.736 1.152,0 -1.485,-2.844 c 0.774,-0.27 1.242,-0.945 1.242,-1.773 0,-0.576 -0.279,-1.062 -0.639,-1.368 -0.342,-0.297 -0.765,-0.423 -1.305,-0.423 l -2.502,0 0,6.408 z"
       id="VIÑA-DEL-MAR"
       inkscape:connector-curvature="0"
       style="fill:#566169;fill-rule:evenodd;stroke:none;stroke-width:1" />
  </g>
</svg>
